<?xml version="1.0" standalone="no"?>
<!DOCTYPE svg PUBLIC "-//W3C//DTD SVG 20010904//EN"
 "http://www.w3.org/TR/2001/REC-SVG-20010904/DTD/svg10.dtd">
<svg version="1.0" xmlns="http://www.w3.org/2000/svg"
 width="500.000000pt" height="500.000000pt" viewBox="0 0 500.000000 500.000000"
 preserveAspectRatio="xMidYMid meet">

<g transform="translate(0.000000,500.000000) scale(0.100000,-0.100000)"
fill="#000000" stroke="none">
<path d="M1247 4993 c689 -2 1817 -2 2505 0 689 1 126 2 -1252 2 -1378 0
-1941 -1 -1253 -2z"/>
<path d="M2572 4003 c-88 -32 -128 -52 -139 -69 -9 -14 -26 -63 -40 -111 -23
-83 -71 -189 -118 -262 -12 -20 -53 -119 -91 -221 -68 -184 -94 -230 -132
-230 -11 0 -24 -6 -30 -12 -14 -17 -32 -120 -32 -182 0 -89 -86 -235 -147
-251 -44 -10 -241 -90 -318 -128 -38 -19 -117 -49 -175 -67 -130 -39 -267 -88
-300 -107 -25 -14 -25 -14 10 -8 32 5 33 4 15 -9 -11 -9 -16 -16 -11 -16 5 0
3 -7 -4 -15 -7 -8 -10 -22 -6 -30 4 -11 -22 -31 -97 -76 -56 -33 -109 -64
-117 -70 -8 -5 -36 -18 -61 -29 -34 -15 -51 -29 -64 -56 -9 -19 -27 -40 -41
-46 -25 -12 -25 -36 -2 -65 5 -7 7 -16 4 -22 -3 -5 16 -2 43 7 28 8 47 20 44
25 -4 6 1 8 10 4 10 -3 17 -2 17 4 0 6 9 8 19 4 11 -3 46 5 79 19 108 46 255
99 362 132 58 18 176 59 264 93 160 62 183 69 156 50 -11 -8 -7 -9 18 -4 36 7
36 9 21 -34 -16 -44 -23 -41 -55 27 -2 5 -64 -20 -64 -26 0 -4 16 -33 35 -64
19 -32 30 -60 24 -63 -5 -4 -6 -11 -3 -17 4 -7 2 -8 -4 -4 -7 4 -17 17 -24 29
-10 21 -10 21 7 7 17 -14 18 -14 6 8 -7 12 -16 20 -21 17 -5 -3 -16 7 -24 23
-14 27 -46 61 -46 48 0 -3 19 -36 43 -73 24 -38 46 -73 50 -80 4 -6 3 -14 -3
-18 -5 -3 -33 30 -62 74 -29 45 -58 81 -66 81 -15 0 -15 0 50 -98 27 -39 51
-80 54 -90 4 -9 -24 27 -60 81 -36 53 -71 97 -77 97 -12 0 -9 -5 77 -134 30
-44 51 -82 48 -85 -7 -8 -27 18 -88 116 -49 79 -60 91 -77 84 -11 -4 -21 -9
-22 -11 -3 -9 62 -115 70 -115 4 0 7 -3 6 -7 -2 -4 17 -29 42 -55 25 -27 45
-54 45 -60 0 -7 5 -13 12 -13 6 0 9 -2 6 -5 -14 -15 -45 18 -118 126 -73 107
-110 143 -110 106 0 -23 67 -125 125 -191 30 -35 55 -68 55 -73 0 -17 -254
-583 -329 -732 -66 -132 -71 -146 -59 -171 7 -16 17 -26 25 -23 7 3 16 -2 19
-12 4 -9 12 -14 20 -11 7 3 14 -2 16 -11 2 -9 20 10 46 49 96 139 104 150 112
138 6 -9 14 -2 26 21 10 20 19 28 22 21 3 -10 8 -10 25 1 30 19 77 27 77 13 0
-6 9 3 21 19 24 35 90 164 87 167 -5 5 153 308 161 308 4 0 49 -20 100 -45
320 -158 667 -182 986 -68 75 27 224 99 287 139 20 13 41 24 45 24 5 0 13 -17
20 -37 9 -29 8 -39 -3 -50 -18 -19 -3 -57 25 -61 11 -2 21 -8 21 -13 0 -6 4
-8 9 -5 5 3 11 -4 15 -17 3 -12 1 -23 -4 -25 -16 -6 -11 -38 8 -55 10 -10 22
-14 25 -11 4 4 10 -2 13 -12 4 -10 20 -47 36 -82 16 -35 27 -66 24 -69 -3 -3
5 -20 18 -37 13 -17 38 -58 55 -91 52 -98 111 -191 111 -175 1 22 20 -6 86
-126 53 -97 114 -177 99 -129 -4 13 0 10 11 -7 17 -25 44 -42 30 -19 -4 5 7
12 23 16 16 3 37 17 46 31 9 14 20 22 26 18 23 -14 -18 114 -92 288 -32 75
-67 171 -78 215 -11 43 -34 115 -51 161 -16 45 -30 91 -30 101 0 10 -22 65
-49 122 -28 57 -68 155 -90 217 l-41 113 69 120 c38 66 91 177 117 247 48 126
48 128 52 271 4 137 3 144 -15 137 -10 -4 -31 -10 -46 -13 -25 -5 -28 -10 -24
-32 3 -14 1 -46 -3 -71 -7 -43 -8 -42 -9 24 l-1 68 -27 -7 c-16 -4 -29 -7 -29
-8 -1 -1 -7 -31 -12 -67 l-11 -65 3 63 c3 81 -19 85 -28 5 -8 -75 -43 -214
-67 -270 -21 -49 -17 -58 6 -13 9 17 20 28 25 25 6 -4 10 2 10 11 0 10 3 15 6
11 3 -3 3 -15 -1 -28 -6 -17 -9 -19 -16 -8 -5 8 -9 9 -9 3 0 -6 -16 -47 -36
-90 -26 -57 -38 -74 -44 -64 -6 10 -2 27 12 50 l20 35 -26 -30 -26 -30 6 30
c4 17 15 46 24 65 28 57 48 128 69 243 l19 109 -22 -6 c-19 -5 -19 -4 4 14 15
12 34 18 48 15 13 -3 22 -1 22 6 0 6 7 8 15 5 19 -7 300 65 286 73 -16 10 293
108 452 143 96 21 147 37 147 45 0 18 -6 17 -173 -22 -85 -20 -161 -32 -180
-30 -27 5 -29 4 -12 -5 18 -9 17 -10 -5 -5 -14 2 -32 5 -40 6 -8 0 8 7 35 15
28 7 66 11 85 9 24 -4 29 -3 15 3 -17 8 -16 9 10 15 17 3 44 3 60 0 24 -4 27
-2 15 7 -12 9 -7 10 20 5 27 -5 32 -4 20 5 -12 9 -7 10 20 5 27 -5 32 -4 20 5
-12 9 -9 10 14 5 16 -3 32 -2 35 3 3 5 47 19 96 30 l90 20 -55 2 -55 2 35 14
35 14 -45 -6 c-25 -3 -115 -21 -200 -40 -85 -19 -159 -34 -165 -33 -5 0 46 16
115 34 145 38 121 44 -66 15 -71 -11 -145 -19 -164 -19 l-35 1 35 10 c49 14
63 30 20 23 l-35 -5 38 11 c80 23 30 24 -120 2 -249 -37 -372 -53 -458 -59
-44 -4 -82 -10 -85 -14 -5 -7 -220 -40 -261 -40 -20 0 -46 48 -127 240 -37 88
-39 97 -41 193 0 34 -5 57 -12 57 -6 0 -22 9 -36 20 -14 11 -21 20 -15 20 6 0
14 -4 17 -10 8 -13 25 -13 25 -1 0 5 -9 13 -20 16 -25 8 -52 59 -56 105 -1 19
-11 58 -22 85 -10 28 -29 91 -42 140 -12 50 -25 97 -27 105 -3 8 -7 28 -9 45
-3 16 -9 34 -14 39 -6 6 -10 18 -10 28 0 25 -8 23 -148 -29z m178 -126 c0 -5
-4 -5 -10 -2 -5 3 -10 14 -10 23 0 15 2 15 10 2 5 -8 10 -19 10 -23z m-20 -17
c0 -5 -4 -10 -10 -10 -5 0 -10 5 -10 10 0 6 5 10 10 10 6 0 10 -4 10 -10z m10
-50 c0 -5 -2 -10 -4 -10 -3 0 -8 5 -11 10 -3 6 -1 10 4 10 6 0 11 -4 11 -10z
m18 -56 c-4 -3 -12 5 -18 18 -12 22 -12 22 6 6 10 -10 15 -20 12 -24z m-377
-31 c-12 -20 -14 -14 -5 12 4 9 9 14 11 11 3 -2 0 -13 -6 -23z m418 -26 c1 -5
-3 -5 -9 -2 -5 3 -10 16 -9 28 0 21 1 21 9 2 5 -11 9 -24 9 -28z m-463 -82
c-17 -41 -35 -73 -36 -63 0 11 39 98 45 98 3 0 -1 -16 -9 -35z m499 -71 c4
-25 3 -24 -8 6 -8 19 -17 46 -20 60 -5 19 -3 17 8 -6 7 -17 16 -44 20 -60z
m-236 -254 c12 -30 21 -59 21 -65 -1 -14 -49 97 -50 114 0 22 6 11 29 -49z
m-63 13 c-67 -186 -177 -443 -191 -443 -5 0 12 45 79 204 25 59 43 112 40 117
-3 5 -1 9 4 9 6 0 17 17 25 38 34 82 47 112 52 112 2 0 -2 -17 -9 -37z m55
-70 c13 -32 24 -60 24 -63 1 -3 5 -16 9 -29 6 -18 4 -26 -8 -33 -19 -11 -22
-64 -3 -71 6 -2 20 0 29 4 13 7 21 3 32 -18 20 -37 20 -21 1 17 -9 17 -13 30
-10 30 7 0 85 -166 85 -178 -1 -4 -14 18 -31 48 -31 57 -33 53 -5 -12 9 -21
15 -38 14 -38 -2 0 -88 -22 -193 -50 -104 -27 -190 -48 -191 -47 -5 5 209 497
216 497 4 0 18 -26 31 -57z m271 -253 c6 -17 6 -22 -1 -15 -11 12 -151 312
-150 323 1 7 133 -264 151 -308z m-129 116 c-3 -12 -1 -16 6 -12 7 4 9 1 5 -8
-3 -8 -1 -23 5 -33 8 -14 11 -15 11 -3 1 8 10 -2 20 -22 13 -23 17 -44 12 -57
-5 -16 -18 4 -59 96 -28 63 -49 122 -46 130 9 22 54 -66 46 -91z m1682 -72
c-27 -7 -57 -13 -65 -13 -21 1 70 27 95 27 11 0 -2 -6 -30 -14z m-88 -20 c-3
-3 -12 -4 -19 -1 -8 3 -5 6 6 6 11 1 17 -2 13 -5z m-40 -10 c-3 -3 -12 -4 -19
-1 -8 3 -5 6 6 6 11 1 17 -2 13 -5z m-180 -10 c-3 -3 -12 -4 -19 -1 -8 3 -5 6
6 6 11 1 17 -2 13 -5z m136 -1 c-7 -2 -19 -2 -25 0 -7 3 -2 5 12 5 14 0 19 -2
13 -5z m-176 -9 c-3 -3 -12 -4 -19 -1 -8 3 -5 6 6 6 11 1 17 -2 13 -5z m130 0
c-3 -3 -12 -4 -19 -1 -8 3 -5 6 6 6 11 1 17 -2 13 -5z m-170 -10 c-3 -3 -12
-4 -19 -1 -8 3 -5 6 6 6 11 1 17 -2 13 -5z m130 0 c-3 -3 -12 -4 -19 -1 -8 3
-5 6 6 6 11 1 17 -2 13 -5z m-927 -24 c-117 -21 -136 -23 -127 -14 7 7 162 32
202 32 17 0 -17 -9 -75 -18z m735 10 c-11 -5 -27 -9 -35 -9 -9 0 -8 4 5 9 11
5 27 9 35 9 9 0 8 -4 -5 -9z m112 -6 c-3 -3 -12 -4 -19 -1 -8 3 -5 6 6 6 11 1
17 -2 13 -5z m-180 -10 c-3 -3 -12 -4 -19 -1 -8 3 -5 6 6 6 11 1 17 -2 13 -5z
m130 0 c-3 -3 -12 -4 -19 -1 -8 3 -5 6 6 6 11 1 17 -2 13 -5z m-642 -14 c-3
-5 -18 -9 -33 -9 l-27 1 30 8 c17 4 31 8 33 9 2 0 0 -3 -3 -9z m460 0 c-11 -5
-27 -9 -35 -9 -9 0 -8 4 5 9 11 5 27 9 35 9 9 0 8 -4 -5 -9z m142 4 c-3 -3
-12 -4 -19 -1 -8 3 -5 6 6 6 11 1 17 -2 13 -5z m-1764 -19 c-3 -9 -8 -14 -10
-11 -3 3 -2 9 2 15 9 16 15 13 8 -4z m1724 9 c-3 -3 -12 -4 -19 -1 -8 3 -5 6
6 6 11 1 17 -2 13 -5z m-644 -11 c-7 -2 -19 -2 -25 0 -7 3 -2 5 12 5 14 0 19
-2 13 -5z m462 -3 c-11 -5 -27 -9 -35 -9 -9 0 -8 4 5 9 11 5 27 9 35 9 9 0 8
-4 -5 -9z m142 4 c-3 -3 -12 -4 -19 -1 -8 3 -5 6 6 6 11 1 17 -2 13 -5z m98
-4 c-19 -8 -19 -9 -1 -9 11 -1 17 -3 14 -6 -3 -3 -20 -2 -39 2 -33 7 -33 7 -9
14 36 10 59 9 35 -1z m-748 -6 c-3 -3 -12 -4 -19 -1 -8 3 -5 6 6 6 11 1 17 -2
13 -5z m610 0 c-3 -3 -12 -4 -19 -1 -8 3 -5 6 6 6 11 1 17 -2 13 -5z m190 0
c-3 -3 -12 -4 -19 -1 -8 3 -5 6 6 6 11 1 17 -2 13 -5z m-457 -40 c-173 -52
-269 -76 -282 -72 -7 3 42 19 107 37 66 18 149 41 185 51 36 10 74 18 85 19
11 0 -32 -16 -95 -35z m225 31 c-5 -2 -64 -18 -130 -35 -66 -17 -129 -33 -140
-37 -11 -3 -16 -2 -12 3 10 10 242 72 272 72 11 0 16 -1 10 -3z m112 -1 c-3
-3 -12 -4 -19 -1 -8 3 -5 6 6 6 11 1 17 -2 13 -5z m-1736 -31 c-12 -20 -14
-14 -5 12 4 9 9 14 11 11 3 -2 0 -13 -6 -23z m1169 14 c-14 -8 -43 -14 -64
-15 -21 -1 -48 -4 -60 -8 -11 -4 -18 -3 -14 1 7 7 109 32 143 34 17 1 16 -1
-5 -12z m527 7 c-3 -3 -12 -4 -19 -1 -8 3 -5 6 6 6 11 1 17 -2 13 -5z m80 0
c-3 -3 -12 -4 -19 -1 -8 3 -5 6 6 6 11 1 17 -2 13 -5z m-120 -10 c-3 -3 -12
-4 -19 -1 -8 3 -5 6 6 6 11 1 17 -2 13 -5z m80 0 c-3 -3 -12 -4 -19 -1 -8 3
-5 6 6 6 11 1 17 -2 13 -5z m-120 -10 c-3 -3 -12 -4 -19 -1 -8 3 -5 6 6 6 11
1 17 -2 13 -5z m40 -10 c-3 -3 -12 -4 -19 -1 -8 3 -5 6 6 6 11 1 17 -2 13 -5z
m-1172 -13 c-12 -10 -226 -64 -232 -58 -3 3 179 54 237 66 2 1 0 -3 -5 -8z
m1075 -1 c11 -8 7 -9 -15 -4 -37 8 -45 14 -19 14 10 0 26 -5 34 -10z m-1480
-37 c-11 -17 -11 -17 -6 0 3 10 6 24 7 30 0 9 2 9 5 0 3 -7 0 -20 -6 -30z
m455 27 c-3 -5 -14 -10 -23 -9 -14 0 -13 2 3 9 27 11 27 11 20 0z m950 -9 c16
-7 14 -9 -13 -14 -17 -4 -42 -2 -54 3 -19 8 -17 9 12 4 26 -4 31 -3 20 5 -13
10 -13 11 0 10 8 0 24 -4 35 -8z m52 3 c-3 -3 -12 -4 -19 -1 -8 3 -5 6 6 6 11
1 17 -2 13 -5z m-210 -10 c-3 -3 -12 -4 -19 -1 -8 3 -5 6 6 6 11 1 17 -2 13
-5z m78 -13 c13 -5 -19 -17 -113 -41 -73 -18 -135 -30 -138 -28 -2 3 23 11 58
18 47 10 57 15 42 22 -12 5 -4 6 21 3 31 -4 35 -3 20 5 -15 7 -11 8 20 5 31
-4 35 -3 20 5 -15 7 -11 8 20 5 30 -4 35 -3 20 4 -25 12 1 13 30 2z m-308 -17
c-3 -3 -12 -4 -19 -1 -8 3 -5 6 6 6 11 1 17 -2 13 -5z m530 0 c-3 -3 -12 -4
-19 -1 -8 3 -5 6 6 6 11 1 17 -2 13 -5z m-1460 -10 c-3 -3 -12 -4 -19 -1 -8 3
-5 6 6 6 11 1 17 -2 13 -5z m1000 -20 c-3 -3 -12 -4 -19 -1 -8 3 -5 6 6 6 11
1 17 -2 13 -5z m-44 -11 c-7 -2 -21 -2 -30 0 -10 3 -4 5 12 5 17 0 24 -2 18
-5z m374 -55 c-3 -8 -6 -5 -6 6 -1 11 2 17 5 13 3 -3 4 -12 1 -19z m-276 -113
c-25 -113 -51 -182 -62 -164 -5 9 -9 7 -12 -7 -2 -10 -3 -4 -1 15 2 19 -1 42
-7 52 -7 13 -6 19 1 19 6 0 8 5 5 10 -3 6 -16 10 -29 10 -12 0 -32 10 -43 23
-19 20 -67 117 -61 122 2 2 50 11 108 22 85 15 107 17 113 6 4 -7 -1 -55 -12
-108z m-621 88 c-19 -2 -95 -18 -168 -34 -74 -17 -136 -29 -138 -26 -3 3 30
12 73 22 43 9 101 23 128 30 28 7 70 13 95 12 38 0 40 -1 10 -4z m890 -65 c0
-34 -4 -58 -8 -52 -8 9 -4 114 4 114 2 0 4 -28 4 -62z m-1082 -3 c-81 -18
-157 -36 -170 -40 -13 -4 -20 -4 -15 1 9 10 274 73 307 73 14 0 -41 -15 -122
-34z m192 6 l25 -8 -30 -6 c-16 -3 -48 -9 -70 -13 -22 -3 -85 -17 -140 -29
-55 -13 -113 -21 -130 -18 -23 3 -27 2 -15 -6 17 -12 4 -13 -25 -2 -15 6 -4
12 50 28 176 52 283 69 335 54z m-321 -5 c-7 -7 -172 -46 -176 -42 -5 5 135
44 161 45 11 1 17 -1 15 -3z m424 -209 c32 -89 86 -218 118 -286 50 -102 58
-126 47 -137 -7 -7 -50 -35 -94 -62 -92 -55 -234 -106 -345 -123 -100 -16
-284 -6 -383 20 -83 22 -245 95 -286 128 l-24 21 38 46 c24 30 44 45 53 42 8
-3 11 -1 8 4 -3 6 -2 10 3 10 16 0 22 28 28 117 5 95 38 184 74 203 36 19 639
176 690 179 11 1 32 -47 73 -162z m16 41 c11 -34 19 -63 17 -65 -2 -3 -12 20
-21 49 -10 29 -20 59 -23 66 -2 6 -2 12 1 12 3 0 15 -28 26 -62z m-622 46 c-3
-3 -12 -4 -19 -1 -8 3 -5 6 6 6 11 1 17 -2 13 -5z m-52 -14 c-11 -5 -27 -9
-35 -9 -9 0 -8 4 5 9 11 5 27 9 35 9 9 0 8 -4 -5 -9z m-695 -74 c0 -2 -36 -16
-80 -31 -43 -16 -77 -31 -75 -36 7 -11 -23 -19 -42 -12 -11 5 -14 3 -8 -6 6
-10 2 -11 -15 -6 -14 5 -20 3 -16 -3 4 -6 -3 -8 -16 -5 -19 4 -20 3 -8 -7 12
-9 11 -10 -9 -5 -15 5 -21 3 -17 -3 8 -13 -17 -22 -46 -15 -18 4 -20 3 -8 -6
18 -13 1 -15 -18 -2 -12 7 66 39 328 134 19 7 30 8 30 3z m146 -41 c-27 -13
-56 -21 -64 -17 -9 3 -13 1 -9 -5 9 -14 -15 -23 -45 -16 -18 4 -20 3 -8 -6 18
-13 1 -15 -19 -2 -9 6 2 14 40 27 30 10 63 19 74 19 11 1 29 6 40 13 11 6 25
11 30 11 6 0 -12 -11 -39 -24z m1886 3 c-7 -7 -12 -8 -12 -2 0 14 12 26 19 19
2 -3 -1 -11 -7 -17z m-220 -10 c-7 -7 -12 -8 -12 -2 0 14 12 26 19 19 2 -3 -1
-11 -7 -17z m270 0 c-7 -7 -12 -8 -12 -2 0 14 12 26 19 19 2 -3 -1 -11 -7 -17z
m-1574 -52 c-13 -31 -26 -56 -30 -56 -3 0 6 27 20 60 33 74 41 72 10 -4z m939
-59 c19 -41 29 -54 35 -45 6 9 7 5 3 -10 -4 -13 -1 -32 7 -45 18 -30 39 -77
33 -77 -12 0 -116 226 -129 280 -6 25 -3 19 51 -103z m-7 68 c0 -5 -5 -3 -10
5 -5 8 -10 20 -10 25 0 6 5 3 10 -5 5 -8 10 -19 10 -25z m391 8 c-12 -20 -14
-14 -5 12 4 9 9 14 11 11 3 -2 0 -13 -6 -23z m87 -68 c-24 -47 -44 -81 -46
-76 -3 9 76 161 84 161 2 0 -15 -38 -38 -85z m27 -17 c-24 -51 -49 -94 -56
-97 -7 -2 4 25 23 60 20 35 43 79 52 97 9 17 18 32 21 32 2 0 -16 -42 -40 -92z
m-1957 73 c19 -12 -8 -21 -40 -14 -16 3 -19 2 -10 -5 11 -7 10 -10 -3 -16 -24
-9 -32 -7 -15 4 13 9 13 10 0 11 -8 0 -1 7 15 14 36 17 36 17 53 6z m273 -57
c-16 -33 -30 -53 -31 -45 0 16 51 113 57 107 3 -2 -9 -30 -26 -62z m1208 -9
c0 -5 -6 1 -14 15 -8 14 -14 30 -14 35 0 6 6 -1 14 -15 8 -14 14 -29 14 -35z
m-1578 38 c-11 -5 -11 -7 0 -15 9 -5 4 -6 -16 -2 -20 3 -25 2 -17 -4 17 -12
-118 -62 -150 -55 -16 3 -19 2 -10 -5 18 -12 -37 -33 -70 -25 -18 4 -20 3 -8
-6 18 -13 1 -15 -18 -2 -19 11 198 92 229 85 17 -4 20 -3 10 4 -10 7 -7 12 15
20 29 11 61 15 35 5z m-263 -22 c19 -12 -8 -21 -40 -14 -18 4 -20 3 -8 -6 18
-13 1 -15 -19 -2 -10 6 -6 11 15 19 37 13 37 13 52 3z m341 5 c-8 -8 -222 -86
-226 -82 -2 2 45 22 104 44 101 38 132 48 122 38z m147 -58 c8 -16 13 -28 10
-28 -5 0 -46 69 -46 78 0 8 15 -13 36 -50z m1842 -42 c-24 -42 -47 -76 -52
-76 -5 0 -1 10 8 23 9 12 25 42 37 67 24 50 40 73 46 66 3 -2 -15 -38 -39 -80z
m82 44 c-6 -11 -13 -20 -16 -20 -2 0 0 9 6 20 6 11 13 20 16 20 2 0 0 -9 -6
-20z m-51 -87 c-40 -71 -59 -100 -59 -89 0 10 81 146 87 146 2 0 -10 -26 -28
-57z m-2409 43 c0 -2 -13 -9 -30 -15 -35 -12 -41 -5 -7 9 25 10 37 12 37 6z
m613 -126 c-5 -19 -23 -39 -23 -25 0 9 20 45 24 45 2 0 2 -9 -1 -20z m-27 -67
c-10 -10 -19 5 -10 18 6 11 8 11 12 0 2 -7 1 -15 -2 -18z m1364 -18 c-16 -19
-131 -88 -137 -82 -2 3 20 18 49 35 29 17 62 37 73 46 26 20 31 20 15 1z
m-1108 -45 c18 -11 29 -20 23 -20 -5 0 -23 9 -40 20 -39 26 -25 26 17 0z
m-292 -6 c0 -8 -4 -12 -10 -9 -5 3 -10 10 -10 16 0 5 5 9 10 9 6 0 10 -7 10
-16z m351 -57 c154 -78 262 -102 459 -101 181 0 243 13 399 79 57 25 113 45
124 45 19 0 18 -2 -9 -31 -46 -48 -82 -66 -215 -105 -113 -33 -138 -37 -280
-41 -126 -5 -172 -2 -235 12 -78 17 -337 124 -362 149 -12 12 -7 46 7 46 4 0
54 -24 112 -53z m-371 3 c0 -5 -2 -10 -4 -10 -3 0 -8 5 -11 10 -3 6 -1 10 4
10 6 0 11 -4 11 -10z m464 -115 c113 -41 248 -65 362 -65 138 0 323 41 438 96
55 27 66 29 66 13 0 -16 -135 -75 -224 -98 -296 -78 -627 -25 -875 138 -7 5
-11 13 -7 19 4 6 33 -5 74 -29 38 -22 112 -55 166 -74z m1006 80 c0 -2 -10 -9
-22 -15 -22 -11 -22 -10 -4 4 21 17 26 19 26 11z m-1509 -32 c-12 -20 -14 -14
-5 12 4 9 9 14 11 11 3 -2 0 -13 -6 -23z m1136 11 c-3 -3 -12 -4 -19 -1 -8 3
-5 6 6 6 11 1 17 -2 13 -5z m-40 -10 c-3 -3 -12 -4 -19 -1 -8 3 -5 6 6 6 11 1
17 -2 13 -5z m423 -7 c0 -31 -188 -122 -347 -168 -95 -27 -128 -31 -278 -36
-160 -5 -177 -4 -285 21 -63 15 -144 39 -180 54 -94 38 -194 97 -198 116 -3
13 9 9 50 -15 276 -164 616 -202 928 -103 82 25 202 81 265 123 36 23 45 25
45 8z m-467 -4 c-7 -2 -19 -2 -25 0 -7 3 -2 5 12 5 14 0 19 -2 13 -5z m-260
-10 c-13 -2 -33 -2 -45 0 -13 2 -3 4 22 4 25 0 35 -2 23 -4z m180 0 c-13 -2
-33 -2 -45 0 -13 2 -3 4 22 4 25 0 35 -2 23 -4z m585 -25 c-7 -19 -132 -93
-217 -129 -316 -132 -696 -124 -994 19 -97 47 -165 91 -141 92 7 0 56 -22 110
-49 292 -146 604 -171 914 -73 47 14 96 34 110 43 14 9 37 19 52 23 15 3 53
24 85 46 59 40 88 50 81 28z m-1149 -24 c14 -12 -19 -1 -35 12 -18 14 -18 14
6 3 14 -6 27 -13 29 -15z m955 16 c-16 -16 -133 -59 -234 -86 -74 -20 -125
-26 -235 -29 l-140 -4 125 9 c156 10 257 31 385 80 114 44 112 43 99 30z m585
-45 c0 -5 -6 1 -14 15 -8 14 -14 30 -14 35 0 6 6 -1 14 -15 8 -14 14 -29 14
-35z m-1499 15 c8 -5 11 -10 5 -10 -5 0 -17 5 -25 10 -8 5 -10 10 -5 10 6 0
17 -5 25 -10z m107 -36 c32 -9 89 -22 127 -29 41 -8 58 -14 40 -14 -37 -1
-216 43 -241 59 -17 11 -17 11 0 6 10 -3 43 -13 74 -22z m1476 -176 c9 -31 2
-33 -11 -3 -6 14 -8 25 -3 25 5 0 11 -10 14 -22z m181 -490 c3 -13 -12 13 -34
57 -21 44 -39 87 -39 95 0 17 64 -116 73 -152z m-121 -121 c4 3 8 1 8 -5 2
-21 5 -26 27 -69 12 -23 22 -46 22 -50 0 -14 -18 13 -55 82 -20 39 -30 62 -22
53 8 -10 17 -15 20 -11z"/>
<path d="M2691 3175 c0 -5 8 -26 19 -45 11 -19 19 -30 19 -25 0 6 -8 26 -19
45 -11 19 -19 31 -19 25z"/>
<path d="M2761 3025 c0 -5 6 -21 14 -35 8 -14 14 -20 14 -15 0 6 -6 21 -14 35
-8 14 -14 21 -14 15z"/>
<path d="M2743 2583 c9 -2 23 -2 30 0 6 3 -1 5 -18 5 -16 0 -22 -2 -12 -5z"/>
<path d="M2698 2573 c7 -3 16 -2 19 1 4 3 -2 6 -13 5 -11 0 -14 -3 -6 -6z"/>
<path d="M2648 2563 c7 -3 16 -2 19 1 4 3 -2 6 -13 5 -11 0 -14 -3 -6 -6z"/>
<path d="M2518 2533 c7 -3 16 -2 19 1 4 3 -2 6 -13 5 -11 0 -14 -3 -6 -6z"/>
<path d="M2478 2523 c7 -3 16 -2 19 1 4 3 -2 6 -13 5 -11 0 -14 -3 -6 -6z"/>
<path d="M2200 2285 c0 -8 5 -15 10 -15 6 0 10 7 10 15 0 8 -4 15 -10 15 -5 0
-10 -7 -10 -15z"/>
<path d="M1310 2200 c-8 -5 -10 -10 -5 -10 6 0 17 5 25 10 8 5 11 10 5 10 -5
0 -17 -5 -25 -10z"/>
<path d="M1200 2160 c-18 -12 -2 -12 25 0 13 6 15 9 5 9 -8 0 -22 -4 -30 -9z"/>
<path d="M4383 3063 c9 -2 23 -2 30 0 6 3 -1 5 -18 5 -16 0 -22 -2 -12 -5z"/>
<path d="M4208 2943 c7 -3 16 -2 19 1 4 3 -2 6 -13 5 -11 0 -14 -3 -6 -6z"/>
<path d="M4118 2923 c6 -2 18 -2 25 0 6 3 1 5 -13 5 -14 0 -19 -2 -12 -5z"/>
<path d="M3878 2783 c7 -3 16 -2 19 1 4 3 -2 6 -13 5 -11 0 -14 -3 -6 -6z"/>
<path d="M942 2278 c-22 -22 -14 -40 16 -36 33 4 47 48 15 48 -11 0 -24 -5
-31 -12z"/>
<path d="M800 2235 c-10 -12 -10 -15 4 -15 9 0 16 7 16 15 0 8 -2 15 -4 15 -2
0 -9 -7 -16 -15z"/>
<path d="M1581 2195 c0 -5 6 -21 14 -35 8 -14 14 -20 14 -15 0 6 -6 21 -14 35
-8 14 -14 21 -14 15z"/>
<path d="M1315 1820 c-11 -17 5 -32 21 -19 7 6 11 15 8 20 -7 12 -21 11 -29
-1z"/>
<path d="M1310 1680 c0 -5 5 -10 10 -10 6 0 10 5 10 10 0 6 -4 10 -10 10 -5 0
-10 -4 -10 -10z"/>
<path d="M1794 1486 c-10 -26 1 -51 21 -51 37 0 29 64 -8 65 -4 0 -10 -6 -13
-14z"/>
<path d="M1480 1080 c0 -5 5 -10 10 -10 6 0 10 5 10 10 0 6 -4 10 -10 10 -5 0
-10 -4 -10 -10z"/>
<path d="M1326 953 c-4 -9 -2 -21 4 -27 13 -13 46 17 36 33 -11 16 -33 13 -40
-6z"/>
</g>
</svg>
